<?xml version="1.0" encoding="iso-8859-1"?>
<!-- Generator: Adobe Illustrator 19.0.0, SVG Export Plug-In . SVG Version: 6.00 Build 0)  -->
<svg version="1.1" id="Layer_1" xmlns="http://www.w3.org/2000/svg" xmlns:xlink="http://www.w3.org/1999/xlink" x="0px" y="0px"
	 viewBox="0 0 512 512" style="enable-background:new 0 0 512 512;" xml:space="preserve">
<g>
	<g>
		<path d="M161.373,270.193c-5.771,0-10.449,4.678-10.449,10.449v3.781c0,5.771,4.678,10.449,10.449,10.449
			c5.77,0,10.449-4.678,10.449-10.449v-3.781C171.822,274.871,167.143,270.193,161.373,270.193z"/>
	</g>
</g>
<g>
	<g>
		<path d="M161.373,301.305c-5.771,0-10.449,4.679-10.449,10.449v65.125c0,5.771,4.678,10.449,10.449,10.449
			c5.77,0,10.449-4.678,10.449-10.449v-65.125C171.822,305.984,167.143,301.305,161.373,301.305z"/>
	</g>
</g>
<g>
	<g>
		<path d="M437.019,74.981C388.668,26.628,324.38,0,256,0S123.332,26.628,74.981,74.981C26.629,123.333,0,187.62,0,256
			c0,68.38,26.628,132.668,74.981,181.019C123.333,485.371,187.62,512,256,512c68.38,0,132.668-26.628,181.019-74.981
			C485.371,388.667,512,324.38,512,256S485.372,123.332,437.019,74.981z M256,491.102C126.365,491.102,20.898,385.635,20.898,256
			S126.365,20.898,256,20.898S491.102,126.365,491.102,256S385.635,491.102,256,491.102z"/>
	</g>
</g>
<g>
	<g>
		<path d="M256.133,46.888c-115.231,0-208.98,93.748-208.98,208.98s93.748,208.98,208.98,208.98s208.98-93.748,208.98-208.98
			S371.364,46.888,256.133,46.888z M330.681,83.206c53.809,23.322,94.654,71.08,108.456,129.202l-108.456,62.62V83.206z
			 M256.133,67.786c18.636,0,36.64,2.738,53.65,7.81v125.167l-165.849-95.753C175.277,81.637,214.117,67.786,256.133,67.786z
			 M309.783,224.894v62.199l-53.65,30.977l-53.865-31.096v-61.956l53.865-31.099L309.783,224.894z M68.051,255.867
			c0-53.717,22.641-102.242,58.876-136.547l108.308,62.533L69.32,277.645C68.491,270.497,68.051,263.233,68.051,255.867z
			 M181.37,428.434c-53.636-23.327-94.355-70.944-108.188-128.889l108.188-62.462V428.434z M256.132,443.949
			c-18.712,0-36.791-2.761-53.864-7.872V311.104l48.696,28.113c0.013,0.006,0.024,0.014,0.034,0.02l117.141,67.628
			C336.829,430.151,298.063,443.949,256.132,443.949z M385.174,392.567l-108.144-62.433l165.943-95.811
			c0.81,7.073,1.241,14.259,1.241,21.544C444.214,309.665,421.505,358.254,385.174,392.567z"/>
	</g>
</g>
<g>
</g>
<g>
</g>
<g>
</g>
<g>
</g>
<g>
</g>
<g>
</g>
<g>
</g>
<g>
</g>
<g>
</g>
<g>
</g>
<g>
</g>
<g>
</g>
<g>
</g>
<g>
</g>
<g>
</g>
</svg>
