<?xml version="1.0" encoding="iso-8859-1"?>
<!-- Generator: Adobe Illustrator 16.0.0, SVG Export Plug-In . SVG Version: 6.00 Build 0)  -->
<!DOCTYPE svg PUBLIC "-//W3C//DTD SVG 1.1//EN" "http://www.w3.org/Graphics/SVG/1.1/DTD/svg11.dtd">
<svg version="1.1" id="Capa_1" xmlns="http://www.w3.org/2000/svg" xmlns:xlink="http://www.w3.org/1999/xlink" x="0px" y="0px"
	 width="434.391px" height="434.391px" viewBox="0 0 434.391 434.391" style="enable-background:new 0 0 434.391 434.391;"
	 xml:space="preserve">
<g>
	<g id="Layer_8_24_">
		<path d="M405.725,0h-9.53v41.708h-30.251V0h-24.383v93.297H83.364V0H66.245v41.708H36.004v-41.7
			C25.43,0.079,16.885,8.665,16.885,19.247V415.14c0,10.625,8.613,19.251,19.253,19.251H83.37V307.602h258.182v126.789h64.162
			c10.633,0,11.792-8.618,11.792-19.251V19.247C417.514,8.618,416.352,0,405.725,0z M66.251,422.547H36.01v-47.485h30.242V422.547z
			 M66.251,348.993H36.01v-47.486h30.242V348.993z M66.251,270.07H36.01v-47.48h30.242V270.07z M66.251,195.703H36.01V148.22h30.242
			V195.703z M66.251,116.78H36.01V69.297h30.242V116.78z M341.538,278.098H83.364V122.815h258.174V278.098z M396.171,422.547
			h-30.236v-47.485h30.236V422.547z M396.171,348.993h-30.236v-47.486h30.236V348.993z M396.171,270.07h-30.236v-47.48h30.236
			V270.07z M396.171,195.703h-30.236V148.22h30.236V195.703z M396.171,116.78h-30.236V69.297h30.236V116.78z"/>
	</g>
</g>
<g>
</g>
<g>
</g>
<g>
</g>
<g>
</g>
<g>
</g>
<g>
</g>
<g>
</g>
<g>
</g>
<g>
</g>
<g>
</g>
<g>
</g>
<g>
</g>
<g>
</g>
<g>
</g>
<g>
</g>
</svg>
