<svg xmlns="http://www.w3.org/2000/svg" width="276.1" height="367.055" viewBox="0 0 276.1 367.055"><path d="M1071-1312.9c-52.9,2.7-132.4,25.4-156.8,44.7l-2.3,1.8,5.7,13.2c4,9.3,6.1,13.2,7.3,13.2,1.9,0,26.1-8.3,48.1-16.5,26.8-9.9,55.4-17.3,80-20.6,14.2-1.9,37.9-1.5,49.5.9,25.6,5.4,42.8,20.6,48,42.4,1.9,8.2,1.9,24.4,0,34.7-2.1,11.1-7.6,26.4-14.1,39.3-15.6,31.3-37.9,58.9-68.9,85.3-31.6,27-75.3,60.1-77,58.3-.6-.6,63.3-166.7,64.6-168.2,2.1-2.3,8.3,10.1,20.4,40.4,9.8,24.6,13.8,33.2,17.3,36.3,1.8,1.7,2.3,1.2,10.9-10.4,10.3-13.7,12.1-18.1,10.3-24.9-.6-2.4-4.3-11.1-8.2-19.4-3.8-8.3-11.8-26.6-17.8-40.6-17-40.3-27.6-63-29.8-64.4-.5-.3-3.3,5.7-6.4,13.2S1020-1175.5,988-1096s-58.9,145.7-59.6,147.2c-1.6,3-1,3.6,1.5,1.4.9-.7,5.3-2.6,9.8-4,31.3-10.3,111.2-62.1,146.6-95.1,18.1-16.8,41.8-41.3,50-51.5,31.4-39.2,51.7-88.4,51.7-125.6,0-45.4-27-76.8-75-86.9C1102.8-1312.7,1086-1313.6,1071-1312.9Z" transform="translate(-911.9 1313.133)" fill="#fff"/><path d="M1123-1071.4l-12,11.9,8.5,21.7,8.6,21.7,14.2-7c7.8-3.9,14.4-7.3,14.6-7.5.5-.4-19.8-50.4-21-51.8C1135.5-1082.9,1129.7-1077.9,1123-1071.4Z" transform="translate(-911.9 1313.133)" fill="#fff"/></svg>