<?xml version="1.0" encoding="iso-8859-1"?>
<!-- Generator: Adobe Illustrator 19.0.0, SVG Export Plug-In . SVG Version: 6.00 Build 0)  -->
<svg version="1.1" id="Layer_1" xmlns="http://www.w3.org/2000/svg" xmlns:xlink="http://www.w3.org/1999/xlink" x="0px" y="0px"
	 viewBox="0 0 512 512" style="enable-background:new 0 0 512 512;" xml:space="preserve">
<g>
	<g>
		<path d="M336.458,74.175H175.542c-19.009,0-34.473,15.437-34.473,34.415v115.268c0,18.984,15.464,34.428,34.473,34.428h43.762
			l27.638,47.89c1.866,3.234,5.315,5.227,9.049,5.227c3.733,0,7.183-1.992,9.05-5.224l27.653-47.892h43.765
			c19.017,0,34.489-15.445,34.489-34.428V108.59C370.947,89.614,355.475,74.175,336.458,74.175z M350.049,223.858
			c0,7.462-6.097,13.53-13.591,13.53h-49.797c-3.732,0-7.183,1.992-9.049,5.224l-21.618,37.44l-21.605-37.438
			c-1.866-3.235-5.316-5.227-9.05-5.227h-49.797c-7.486,0-13.575-6.07-13.575-13.53V108.59h-0.001
			c0-7.453,6.09-13.517,13.575-13.517h160.916c7.494,0,13.591,6.064,13.591,13.517V223.858z"/>
	</g>
</g>
<g>
	<g>
		<path d="M292.668,157.187l-53.176-30.634c-3.233-1.861-7.214-1.86-10.445,0.007c-3.231,1.867-5.22,5.315-5.22,9.047v61.252
			c0,3.73,1.99,7.178,5.219,9.046c1.617,0.936,3.423,1.403,5.23,1.403c1.799,0,3.6-0.464,5.214-1.394l53.176-30.618
			c3.239-1.864,5.235-5.316,5.235-9.054C297.9,162.506,295.906,159.052,292.668,157.187z M244.724,178.785v-25.101l21.79,12.553
			L244.724,178.785z"/>
	</g>
</g>
<g>
	<g>
		<path d="M501.551,316.617h-29.257H347.603h-29.257H193.654h-29.257H39.706H10.449C4.678,316.617,0,321.296,0,327.066v100.31
			c0,5.77,4.678,10.449,10.449,10.449h29.257c5.771,0,10.449-4.679,10.449-10.449v-31.694h103.793v31.694
			c0,5.77,4.678,10.449,10.449,10.449h29.257c5.771,0,10.449-4.679,10.449-10.449v-31.694h103.794v31.694
			c0,5.77,4.678,10.449,10.449,10.449h29.257c5.771,0,10.449-4.679,10.449-10.449v-31.694h103.793v31.694
			c0,5.77,4.678,10.449,10.449,10.449h29.257c5.771,0,10.449-4.679,10.449-10.449v-100.31
			C512,321.295,507.322,316.617,501.551,316.617z M29.257,385.233v31.694h-8.359v-79.412h8.359V385.233z M153.948,374.784H50.155
			v-37.269h103.793V374.784z M183.205,416.927h-8.359v-31.694v-47.718h8.359V416.927z M307.897,374.784H204.104v-37.269h103.793
			V374.784z M337.154,385.233v31.694h-8.359v-79.412h8.359V385.233z M461.845,374.784H358.052v-37.269h103.793V374.784z
			 M491.102,416.927h-8.359v-31.694v-47.718h8.359V416.927z"/>
	</g>
</g>
<g>
	<g>
		<path d="M184.599,148.9c-5.771,0-10.449,4.679-10.449,10.449v56.281c0,5.772,4.679,10.449,10.449,10.449
			c5.771,0,10.449-4.679,10.449-10.449v-56.281C195.048,153.578,190.37,148.9,184.599,148.9z"/>
	</g>
</g>
<g>
	<g>
		<path d="M184.599,100.292c-5.771,0-10.449,4.679-10.449,10.449v17.117c0,5.771,4.678,10.449,10.449,10.449
			s10.449-4.679,10.449-10.449v-17.117C195.048,104.971,190.37,100.292,184.599,100.292z"/>
	</g>
</g>
<g>
</g>
<g>
</g>
<g>
</g>
<g>
</g>
<g>
</g>
<g>
</g>
<g>
</g>
<g>
</g>
<g>
</g>
<g>
</g>
<g>
</g>
<g>
</g>
<g>
</g>
<g>
</g>
<g>
</g>
</svg>
